<svg width="49" height="49" viewBox="0 0 49 49" fill="none" xmlns="http://www.w3.org/2000/svg">
<path d="M24.5 2C12.0736 2 2 12.0736 2 24.5C2 36.9263 12.0736 47 24.5 47C36.9263 47 47 36.9263 47 24.5C47 12.0736 36.9263 2 24.5 2Z" stroke="white" stroke-width="2.38421" stroke-linecap="round" stroke-linejoin="round"/>
<path d="M7.10986 38.7782C7.10986 38.7782 12.1252 32.3754 24.5001 32.3754C36.8751 32.3754 41.8906 38.7782 41.8906 38.7782" stroke="white" stroke-width="2.38421" stroke-linecap="round" stroke-linejoin="round"/>
<path d="M24.5 24.4996C28.228 24.4996 31.25 21.4777 31.25 17.7496C31.25 14.0217 28.228 10.9996 24.5 10.9996C20.772 10.9996 17.75 14.0217 17.75 17.7496C17.75 21.4777 20.772 24.4996 24.5 24.4996Z" stroke="white" stroke-width="2.38421" stroke-linecap="round" stroke-linejoin="round"/>
</svg>
